<?xml version="1.0" encoding="UTF-8"?>
<!DOCTYPE svg PUBLIC "-//W3C//DTD SVG 1.1//EN" "http://www.w3.org/Graphics/SVG/1.1/DTD/svg11.dtd">
<!-- Creator: CorelDRAW 2018 (64 bitů) -->
<svg xmlns="http://www.w3.org/2000/svg" xml:space="preserve" width="122.477mm" height="35.3716mm" version="1.1" style="shape-rendering:geometricPrecision; text-rendering:geometricPrecision; image-rendering:optimizeQuality; fill-rule:evenodd; clip-rule:evenodd"
viewBox="0 0 4764.16 1375.9"
 xmlns:xlink="http://www.w3.org/1999/xlink">
 <defs>
  <style type="text/css">
   <![CDATA[
    .str0 {stroke:black;stroke-width:20.59;stroke-miterlimit:22.9256}
    .str1 {stroke:black;stroke-width:9.72;stroke-miterlimit:22.9256}
    .str2 {stroke:black;stroke-width:20.59;stroke-linecap:round;stroke-miterlimit:22.9256}
    .fil0 {fill:none}
    .fil2 {fill:#2185D0}
    .fil1 {fill:#F9F9F9}
    .fil3 {fill:white;fill-rule:nonzero}
   ]]>
  </style>
 </defs>
 <g id="Vrstva_x0020_1">
  <metadata id="CorelCorpID_0Corel-Layer"/>
  <g id="Keyboard">
   <path class="fil0 str0" d="M4753.87 1307.71c0,31.98 -22.39,57.89 -50.01,57.89l-4643.55 0c-27.62,0 -50.02,-25.91 -50.02,-57.89l0 -1239.53c0,-31.97 22.39,-57.89 50.02,-57.89l4643.54 0c27.63,0 50.01,25.91 50.01,57.89l0 1239.53 0.01 0z"/>
   <path class="fil1 str1" d="M4452.09 526.23c0,12.07 -9.77,21.85 -21.84,21.85l-190.66 0c-12.07,0 -21.84,-9.79 -21.84,-21.85l0 -190.66c0,-12.09 9.77,-21.86 21.84,-21.86l190.66 0c12.07,0 21.84,9.78 21.84,21.86l0 190.66z"/>
   <path class="fil1 str1" d="M4452.09 272.85c0,12.05 -9.77,21.85 -21.84,21.85l-190.66 0c-12.07,0 -21.84,-9.79 -21.84,-21.85l0 -190.66c0,-12.08 9.77,-21.86 21.84,-21.86l190.66 0c12.07,0 21.84,9.78 21.84,21.86l0 190.66z"/>
   <path class="fil1 str1" d="M2502.86 784.03c0,12.07 -9.78,21.85 -21.85,21.85l-190.67 0c-12.07,0 -21.85,-9.78 -21.85,-21.85l0 -190.66c0,-12.07 9.78,-21.85 21.85,-21.85l190.67 0c12.07,0 21.85,9.78 21.85,21.85l0 190.66z"/>
   <path class="fil1 str1" d="M2439.92 527.65c0,12.07 -9.79,21.85 -21.85,21.85l-190.68 0c-12.07,0 -21.84,-9.78 -21.84,-21.85l0 -190.65c0,-12.07 9.78,-21.86 21.84,-21.86l190.67 0c12.07,0 21.85,9.78 21.85,21.86l0 190.65z"/>
   <path class="fil1 str1" d="M2567.18 271.37c0,11.98 -9.78,21.7 -21.85,21.7l-190.65 0c-12.07,0 -21.86,-9.72 -21.86,-21.7l0 -189.34c0,-11.98 9.79,-21.7 21.86,-21.7l190.65 0c12.07,0 21.85,9.72 21.85,21.7l0 189.34z"/>
   <path class="fil1 str1" d="M1240.07 784.03c0,12.07 -9.78,21.85 -21.84,21.85l-190.67 0c-12.07,0 -21.85,-9.78 -21.85,-21.85l0 -190.66c0,-12.07 9.78,-21.85 21.85,-21.85l190.67 0c12.06,0 21.84,9.78 21.84,21.85l0 190.66z"/>
   <path class="fil1 str1" d="M1177.14 527.65c0,12.07 -9.79,21.85 -21.85,21.85l-190.66 0c-12.07,0 -21.85,-9.78 -21.85,-21.85l0 -190.65c0,-12.07 9.78,-21.86 21.85,-21.86l190.66 0c12.07,0 21.85,9.78 21.85,21.86l0 190.65z"/>
   <path class="fil1 str1" d="M1304.41 271.37c0,11.98 -9.79,21.7 -21.86,21.7l-190.66 0c-12.07,0 -21.85,-9.72 -21.85,-21.7l0 -189.34c0,-11.98 9.78,-21.7 21.85,-21.7l190.66 0c12.07,0 21.86,9.72 21.86,21.7l0 189.34z"/>
   <path class="fil1 str1" d="M1367.33 1039.81c0,12.06 -9.79,21.84 -21.86,21.84l-190.66 0c-12.07,0 -21.85,-9.78 -21.85,-21.84l0 -190.68c0,-12.06 9.79,-21.85 21.85,-21.85l190.66 0c12.06,0 21.86,9.78 21.86,21.85l0 190.68z"/>
   <path class="fil1 str1" d="M2630.1 1039.81c0,12.06 -9.78,21.84 -21.86,21.84l-190.65 0c-12.07,0 -21.85,-9.78 -21.85,-21.84l0 -190.68c0,-12.06 9.79,-21.85 21.85,-21.85l190.65 0c12.06,0 21.86,9.78 21.86,21.85l0 190.68z"/>
   <path class="fil1 str1" d="M4200.07 526.23c0,12.07 -9.78,21.85 -21.85,21.85l-190.65 0c-12.08,0 -21.85,-9.79 -21.85,-21.85l0 -190.66c0,-12.09 9.77,-21.86 21.85,-21.86l190.65 0c12.07,0 21.85,9.78 21.85,21.86l0 190.66z"/>
   <path class="fil1 str1" d="M4200.07 272.85c0,12.05 -9.78,21.85 -21.85,21.85l-190.65 0c-12.08,0 -21.85,-9.79 -21.85,-21.85l0 -190.66c0,-12.08 9.77,-21.86 21.85,-21.86l190.65 0c12.07,0 21.85,9.78 21.85,21.86l0 190.66z"/>
   <path class="fil1 str1" d="M1997.75 784.03c0,12.07 -9.8,21.85 -21.85,21.85l-190.66 0c-12.07,0 -21.85,-9.78 -21.85,-21.85l0 -190.66c0,-12.07 9.78,-21.85 21.85,-21.85l190.66 0c12.06,0 21.85,9.78 21.85,21.85l0 190.66z"/>
   <path class="fil1 str1" d="M1745.19 784.03c0,12.07 -9.79,21.85 -21.86,21.85l-190.66 0c-12.06,0 -21.85,-9.78 -21.85,-21.85l0 -190.66c0,-12.07 9.78,-21.85 21.85,-21.85l190.66 0c12.06,0 21.86,9.78 21.86,21.85l0 190.66z"/>
   <path class="fil1 str1" d="M1492.64 784.03c0,12.07 -9.79,21.85 -21.85,21.85l-190.67 0c-12.06,0 -21.85,-9.78 -21.85,-21.85l0 -190.66c0,-12.07 9.78,-21.85 21.85,-21.85l190.66 0c12.05,0 21.85,9.78 21.85,21.85l0 190.66z"/>
   <path class="fil1 str1" d="M2250.29 784.03c0,12.07 -9.78,21.85 -21.85,21.85l-190.66 0c-12.07,0 -21.85,-9.78 -21.85,-21.85l0 -190.66c0,-12.07 9.78,-21.85 21.85,-21.85l190.66 0c12.07,0 21.85,9.78 21.85,21.85l0 190.66z"/>
   <path class="fil1 str1" d="M1934.8 527.65c0,12.07 -9.79,21.85 -21.85,21.85l-190.66 0c-12.07,0 -21.85,-9.78 -21.85,-21.85l0 -190.65c0,-12.07 9.79,-21.86 21.85,-21.86l190.66 0c12.06,0 21.85,9.78 21.85,21.86l0 190.65z"/>
   <path class="fil1 str1" d="M1429.7 527.65c0,12.07 -9.79,21.85 -21.85,21.85l-190.66 0c-12.07,0 -21.85,-9.78 -21.85,-21.85l-0 -190.65c0,-12.07 9.78,-21.86 21.85,-21.86l190.66 0c12.07,0 21.85,9.78 21.85,21.86l0 190.65z"/>
   <path class="fil1 str1" d="M2187.35 527.65c0,12.07 -9.79,21.85 -21.86,21.85l-190.65 0c-12.07,0 -21.85,-9.78 -21.85,-21.85l0 -190.65c0,-12.07 9.78,-21.86 21.85,-21.86l190.66 0c12.07,0 21.86,9.78 21.86,21.86l0 190.65z"/>
   <path class="fil1 str1" d="M1809.52 271.37c0,11.98 -9.79,21.7 -21.86,21.7l-190.66 0c-12.07,0 -21.86,-9.72 -21.86,-21.7l0 -189.34c0,-11.98 9.79,-21.7 21.86,-21.7l190.66 0c12.07,0 21.86,9.72 21.86,21.7l0 189.34z"/>
   <path class="fil1 str1" d="M1556.96 271.37c0,11.98 -9.78,21.7 -21.85,21.7l-190.66 0c-12.07,0 -21.85,-9.72 -21.85,-21.7l0 -189.34c0,-11.98 9.78,-21.7 21.85,-21.7l190.66 0c12.06,0 21.85,9.72 21.85,21.7l0 189.34z"/>
   <path class="fil1 str1" d="M2314.63 271.37c0,11.98 -9.79,21.7 -21.86,21.7l-190.66 0c-12.07,0 -21.85,-9.72 -21.85,-21.7l0 -189.34c0,-11.98 9.78,-21.7 21.85,-21.7l190.66 0c12.07,0 21.86,9.72 21.86,21.7l0 189.34z"/>
   <path class="fil1 str1" d="M2062.07 271.37c0,11.98 -9.79,21.7 -21.85,21.7l-190.66 0c-12.07,0 -21.85,-9.72 -21.85,-21.7l0 -189.34c0,-11.98 9.79,-21.7 21.85,-21.7l190.66 0c12.07,0 21.85,9.72 21.85,21.7l0 189.34z"/>
   <path class="fil1 str1" d="M1872.43 1039.81c0,12.06 -9.78,21.84 -21.85,21.84l-190.66 0c-12.07,0 -21.85,-9.78 -21.85,-21.84l0 -190.68c0,-12.06 9.78,-21.85 21.85,-21.85l190.66 0c12.07,0 21.85,9.78 21.85,21.85l0 190.68z"/>
   <path class="fil1 str1" d="M1619.88 1039.81c0,12.06 -9.79,21.84 -21.85,21.84l-190.66 0c-12.06,0 -21.85,-9.78 -21.85,-21.84l0 -190.68c0,-12.06 9.78,-21.85 21.85,-21.85l190.66 0c12.06,0 21.85,9.78 21.85,21.85l0 190.68z"/>
   <path class="fil1 str1" d="M2377.54 1039.81c0,12.06 -9.79,21.84 -21.85,21.84l-190.66 0c-12.07,0 -21.85,-9.78 -21.85,-21.84l0 -190.68c0,-12.06 9.78,-21.85 21.85,-21.85l190.66 0c12.06,0 21.85,9.78 21.85,21.85l0 190.68z"/>
   <path class="fil1 str1" d="M2124.98 1039.81c0,12.06 -9.78,21.84 -21.85,21.84l-190.66 0c-12.07,0 -21.85,-9.78 -21.85,-21.84l0 -190.68c0,-12.06 9.78,-21.85 21.85,-21.85l190.66 0c12.07,0 21.85,9.78 21.85,21.85l0 190.68z"/>
   <path class="fil1 str1" d="M4703.83 526.23c0,12.07 -9.79,21.85 -21.86,21.85l-190.65 0c-12.08,0 -21.85,-9.79 -21.85,-21.85l0 -190.66c0,-12.09 9.77,-21.86 21.85,-21.86l190.65 0c12.06,0 21.86,9.78 21.86,21.86l0 190.66z"/>
   <path class="fil1 str1" d="M4703.83 272.85c0,12.05 -9.79,21.85 -21.86,21.85l-190.65 0c-12.08,0 -21.85,-9.79 -21.85,-21.85l0 -190.66c0,-12.08 9.77,-21.86 21.85,-21.86l190.65 0c12.06,0 21.86,9.78 21.86,21.86l0 190.66z"/>
   <path class="fil1 str1" d="M2692.47 527.65c0,12.07 -9.78,21.85 -21.85,21.85l-190.66 0c-12.07,0 -21.85,-9.78 -21.85,-21.85l0 -190.65c0,-12.07 9.78,-21.86 21.85,-21.86l190.66 0c12.07,0 21.85,9.78 21.85,21.86l0 190.65z"/>
   <path class="fil1 str1" d="M2819.74 271.37c0,11.98 -9.79,21.7 -21.87,21.7l-190.65 0c-12.07,0 -21.85,-9.72 -21.85,-21.7l0 -189.34c0,-11.98 9.79,-21.7 21.85,-21.7l190.65 0c12.07,0 21.86,9.72 21.86,21.7l0 189.34z"/>
   <path class="fil1 str1" d="M924.58 527.65c0,12.07 -9.79,21.85 -21.85,21.85l-190.66 0c-12.07,0 -21.85,-9.78 -21.85,-21.85l0 -190.65c0,-12.07 9.78,-21.86 21.85,-21.86l190.66 0c12.07,0 21.85,9.78 21.85,21.86l0 190.65z"/>
   <path class="fil1 str1" d="M1051.84 271.37c0,11.98 -9.78,21.7 -21.85,21.7l-190.66 0c-12.06,0 -21.85,-9.72 -21.85,-21.7l0 -189.34c0,-11.98 9.78,-21.7 21.85,-21.7l190.66 0c12.07,0 21.85,9.72 21.85,21.7l0 189.34z"/>
   <path class="fil1 str1" d="M1114.77 1039.81c0,12.06 -9.78,21.84 -21.84,21.84l-190.66 0c-12.07,0 -21.85,-9.78 -21.85,-21.84l0 -190.68c0,-12.06 9.78,-21.85 21.85,-21.85l190.66 0c12.06,0 21.84,9.78 21.84,21.85l0 190.68z"/>
   <path class="fil1 str1" d="M2882.65 1039.81c0,12.06 -9.78,21.84 -21.85,21.84l-190.66 0c-12.07,0 -21.86,-9.78 -21.86,-21.84l0 -190.68c0,-12.06 9.78,-21.85 21.86,-21.85l190.66 0c12.07,0 21.85,9.78 21.85,21.85l0 190.68z"/>
   <path class="fil1 str1" d="M799.29 271.37c0,11.98 -9.79,21.7 -21.85,21.7l-190.66 0c-12.07,0 -21.85,-9.72 -21.85,-21.7l0 -189.34c0,-11.98 9.78,-21.7 21.85,-21.7l190.66 0c12.06,0 21.85,9.72 21.85,21.7l0 189.34z"/>
   <path class="fil1 str1" d="M3007.95 784.03c0,12.07 -9.78,21.85 -21.85,21.85l-190.65 0c-12.07,0 -21.85,-9.78 -21.85,-21.85l0 -190.66c0,-12.07 9.78,-21.85 21.85,-21.85l190.65 0c12.07,0 21.85,9.78 21.85,21.85l0 190.66z"/>
   <path class="fil1 str1" d="M3513.07 784.03c0,12.07 -9.77,21.85 -21.83,21.85l-190.68 0c-12.05,0 -21.84,-9.78 -21.84,-21.85l0 -190.66c0,-12.07 9.79,-21.85 21.84,-21.85l190.68 0c12.06,0 21.83,9.78 21.83,21.85l0 190.66z"/>
   <path class="fil1 str1" d="M3260.52 784.03c0,12.07 -9.77,21.85 -21.85,21.85l-190.65 0c-12.07,0 -21.85,-9.78 -21.85,-21.85l0 -190.66c0,-12.07 9.79,-21.85 21.85,-21.85l190.64 0c12.08,0 21.85,9.78 21.85,21.85l0 190.66 0.01 0z"/>
   <path class="fil1 str1" d="M2945.02 527.65c0,12.07 -9.78,21.85 -21.84,21.85l-190.67 0c-12.06,0 -21.85,-9.78 -21.85,-21.85l0 -190.65c0,-12.07 9.79,-21.86 21.84,-21.86l190.67 0c12.06,0 21.84,9.78 21.84,21.86l0 190.65z"/>
   <path class="fil1 str1" d="M3450.14 527.65c0,12.07 -9.8,21.85 -21.85,21.85l-190.65 0c-12.08,0 -21.85,-9.78 -21.85,-21.85l0 -190.65c0,-12.07 9.77,-21.86 21.85,-21.86l190.65 0c12.06,0 21.85,9.78 21.85,21.86l0 190.65z"/>
   <path class="fil1 str1" d="M3197.57 527.65c0,12.07 -9.77,21.85 -21.85,21.85l-190.66 0c-12.07,0 -21.85,-9.78 -21.85,-21.85l0 -190.65c0,-12.07 9.79,-21.86 21.85,-21.86l190.66 0c12.08,0 21.85,9.78 21.85,21.86l0 190.65z"/>
   <path class="fil1 str1" d="M3324.83 271.37c0,11.98 -9.78,21.7 -21.83,21.7l-190.66 0c-12.07,0 -21.85,-9.72 -21.85,-21.7l0 -189.34c0,-11.98 9.77,-21.7 21.85,-21.7l190.66 0c12.05,0 21.83,9.72 21.83,21.7l0 189.34z"/>
   <path class="fil1 str1" d="M3072.27 271.37c0,11.98 -9.76,21.7 -21.84,21.7l-190.66 0c-12.07,0 -21.85,-9.72 -21.85,-21.7l0 -189.34c0,-11.98 9.78,-21.7 21.85,-21.7l190.66 0c12.08,0 21.84,9.72 21.84,21.7l0 189.34z"/>
   <path class="fil1 str1" d="M3755.11 1042.13c0,12.19 -10.2,22.09 -22.8,22.09l-556.09 0c-12.61,0 -22.8,-9.9 -22.8,-22.09l0 -192.74c0,-12.22 10.19,-22.1 22.8,-22.1l556.09 -0c12.6,0 22.8,9.89 22.8,22.11l0 192.74z"/>
   <path class="fil1 str1" d="M3750.64 272.86c0,12.05 -9.79,21.84 -21.85,21.84l-356.82 0c-12.07,0 -21.86,-9.78 -21.86,-21.84l0 -190.66c0,-12.08 9.8,-21.86 21.86,-21.86l356.82 -0c12.06,0 21.85,9.79 21.85,21.86l0 190.66z"/>
   <path class="fil1 str1" d="M3135.21 1039.81c0,12.06 -9.79,21.84 -21.85,21.84l-190.66 0c-12.07,0 -21.85,-9.78 -21.85,-21.84l0 -190.68c0,-12.06 9.78,-21.85 21.85,-21.85l190.66 0c12.07,0 21.85,9.78 21.85,21.85l0 190.68z"/>
   <path class="fil1 str1" d="M734.97 784.03c0,12.07 -9.78,21.85 -21.86,21.85l-190.66 0c-12.07,0 -21.86,-9.78 -21.86,-21.85l0 -190.66c0,-12.07 9.78,-21.85 21.86,-21.85l190.66 0c12.06,0 21.86,9.78 21.86,21.85l-0 190.66z"/>
   <path class="fil1 str1" d="M672.04 527.65c0,12.07 -9.79,21.85 -21.86,21.85l-190.66 0c-12.07,0 -21.86,-9.78 -21.86,-21.85l0 -190.65c0,-12.07 9.78,-21.86 21.86,-21.86l190.65 0c12.06,0 21.86,9.78 21.86,21.86l0 190.65 0.01 0z"/>
   <path class="fil1 str1" d="M546.74 271.37c0,11.98 -9.79,21.7 -21.85,21.7l-190.66 0c-12.06,0 -21.85,-9.72 -21.85,-21.7l0 -189.34c0,-11.98 9.78,-21.7 21.85,-21.7l190.66 0c12.06,0 21.85,9.72 21.85,21.7l0 189.34 -0.01 0z"/>
   <path class="fil1 str1" d="M294.44 272.84c0,12.07 -9.78,21.85 -21.85,21.85l-190.66 0c-12.06,0 -21.85,-9.79 -21.85,-21.85l0 -190.66c0,-12.06 9.78,-21.85 21.85,-21.85l190.66 0c12.07,0 21.85,9.79 21.85,21.85l0 190.66z"/>
   <path class="fil1 str1" d="M862.21 1039.81c0,12.06 -9.79,21.84 -21.85,21.84l-190.66 0c-12.06,0 -21.85,-9.78 -21.85,-21.84l0 -190.68c0,-12.06 9.78,-21.85 21.85,-21.85l190.66 0c12.07,0 21.85,9.78 21.85,21.85l0 190.68z"/>
   <path class="fil1 str1" d="M609.66 1039.81c0,12.06 -9.79,21.84 -21.85,21.84l-190.66 0c-12.06,0 -21.85,-9.78 -21.85,-21.84l0 -190.68c0,-12.06 9.79,-21.85 21.85,-21.85l190.66 0c12.06,0 21.85,9.78 21.85,21.85l0 190.68z"/>
   <path class="fil1 str1" d="M355.73 1039.81c0,12.06 -9.79,21.84 -21.85,21.84l-251.96 0c-12.06,0 -21.84,-9.78 -21.84,-21.84l0 -190.68c0,-12.06 9.78,-21.85 21.84,-21.85l251.97 0c12.06,0 21.85,9.78 21.85,21.85l0 190.68 -0.01 0z"/>
   <path class="fil1 str1" d="M415.44 527.65c0,12.07 -9.79,21.85 -21.86,21.85l-311.11 0c-12.07,0 -21.86,-9.78 -21.86,-21.85l0 -190.65c0,-12.08 9.78,-21.86 21.86,-21.86l311.11 0c12.06,0 21.86,9.79 21.86,21.86l0 190.65z"/>
   <path class="fil1 str1" d="M474.98 784.03c0,12.05 -9.85,21.85 -21.99,21.85l-370.92 0c-12.15,0 -22,-9.79 -22,-21.85l0 -190.66c0,-12.07 9.85,-21.86 22,-21.86l370.92 0c12.14,0 21.99,9.78 21.99,21.86l0 190.66z"/>
   <path class="fil1 str1" d="M669.45 1293.73c0,12.07 -9.78,21.84 -21.85,21.84l-190.66 0c-12.08,0 -21.86,-9.78 -21.86,-21.84l0 -190.66c0,-12.09 9.78,-21.86 21.86,-21.86l190.66 0c12.07,0 21.85,9.78 21.85,21.86l0 190.66z"/>
   <path class="fil1 str1" d="M3200.65 1293.73c0,12.07 -9.78,21.84 -21.83,21.84l-190.67 0c-12.07,0 -21.85,-9.78 -21.85,-21.84l0 -190.66c0,-12.09 9.78,-21.86 21.85,-21.86l190.67 0c12.06,0 21.83,9.78 21.83,21.86l0 190.66z"/>
   <path class="fil1 str1" d="M3453.22 1293.73c0,12.07 -9.78,21.84 -21.86,21.84l-190.65 0c-12.06,0 -21.85,-9.78 -21.85,-21.84l0 -190.66c0,-12.09 9.79,-21.86 21.85,-21.86l190.65 0c12.08,0 21.86,9.78 21.86,21.86l0 190.66z"/>
   <path class="fil1 str1" d="M1028.89 1293.73c0,12.07 -9.8,21.84 -21.85,21.84l-293.73 0c-12.07,0 -21.85,-9.78 -21.85,-21.84l0 -190.66c0,-12.09 9.78,-21.86 21.85,-21.86l293.73 0c12.06,0 21.85,9.78 21.85,21.86l0 190.66z"/>
   <path class="fil1 str1" d="M2941.88 1293.72c0,12.07 -9.78,21.85 -21.85,21.85l-303.44 0c-12.07,0 -21.86,-9.79 -21.86,-21.85l0 -190.67c0,-12.07 9.79,-21.85 21.86,-21.85l303.44 0c12.07,0 21.85,9.78 21.85,21.85l0 190.67z"/>
   <path class="fil2 str1" d="M4452.09 1293.73c0,12.07 -9.77,21.84 -21.84,21.84l-190.66 0c-12.07,0 -21.84,-9.78 -21.84,-21.84l0 -190.66c0,-12.09 9.77,-21.86 21.84,-21.86l190.66 0c12.07,0 21.84,9.78 21.84,21.86l0 190.66z"/>
   <path class="fil2 str1" d="M4452.09 1039.97c0,12.05 -9.77,21.85 -21.84,21.85l-190.66 0c-12.07,0 -21.84,-9.79 -21.84,-21.85l0 -190.66c0,-12.09 9.77,-21.88 21.84,-21.88l190.66 0c12.07,0 21.84,9.79 21.84,21.88l0 190.66z"/>
   <path class="fil2 str1" d="M4200.07 1293.73c0,12.07 -9.78,21.84 -21.85,21.84l-190.65 0c-12.08,0 -21.85,-9.78 -21.85,-21.84l0 -190.66c0,-12.09 9.77,-21.86 21.85,-21.86l190.65 0c12.07,0 21.85,9.78 21.85,21.86l0 190.66z"/>
   <path class="fil2 str1" d="M1682.25 527.65c0,12.07 -9.79,21.85 -21.86,21.85l-190.66 0c-12.07,0 -21.85,-9.78 -21.85,-21.85l0 -190.65c0,-12.07 9.79,-21.86 21.85,-21.86l190.66 0c12.07,0 21.86,9.78 21.86,21.86l0 190.65z"/>
   <path class="fil2 str1" d="M4703.83 1293.73c0,12.07 -9.79,21.84 -21.86,21.84l-190.65 0c-12.08,0 -21.85,-9.78 -21.85,-21.84l0 -190.66c0,-12.09 9.77,-21.86 21.85,-21.86l190.65 0c12.06,0 21.86,9.78 21.86,21.86l0 190.66z"/>
   <path class="fil2 str1" d="M2755.41 784.03c0,12.07 -9.79,21.85 -21.85,21.85l-190.66 0c-12.06,0 -21.85,-9.78 -21.85,-21.85l0 -190.66c0,-12.07 9.79,-21.85 21.85,-21.85l190.66 0c12.07,0 21.85,9.78 21.85,21.85l0 190.66z"/>
   <path class="fil2 str1" d="M987.53 784.03c0,12.07 -9.79,21.85 -21.86,21.85l-190.66 0c-12.07,0 -21.85,-9.78 -21.85,-21.85l0 -190.66c0,-12.07 9.79,-21.85 21.85,-21.85l190.66 0c12.07,0 21.86,9.78 21.86,21.85l0 190.66z"/>
   <path class="fil2 str1" d="M3755.12 1293.73c0,12.07 -9.78,21.84 -21.85,21.84l-235.94 0c-12.07,0 -21.85,-9.78 -21.85,-21.84l0 -190.66c0,-12.09 9.79,-21.86 21.85,-21.86l235.94 0c12.07,0 21.85,9.78 21.85,21.86l0 190.66z"/>
   <path class="fil2 str1" d="M3733.27 315.14l-243.08 0c-12.06,0 -21.84,10.14 -21.84,22.67l0 189.84c0,12.52 9.78,21.85 21.84,21.85l41.09 0 0 233.72c0,12.51 9.79,22.65 21.86,22.65l180.13 -0c12.07,0 21.85,-10.14 21.85,-22.65l0 -247.63 0 -13.03 0 -184.74c0.01,-12.53 -9.78,-22.67 -21.85,-22.67z"/>
   <path class="fil2 str1" d="M407.49 1293.73c0,12.07 -9.79,21.84 -21.86,21.84l-303.44 0c-12.07,0 -21.86,-9.78 -21.86,-21.84l0 -190.66c0,-12.09 9.79,-21.86 21.86,-21.86l303.44 0c12.06,0 21.86,9.78 21.86,21.86l0 190.66z"/>
   <path class="fil2 str1" d="M2576.53 1293.73c0,12.07 -10.43,21.84 -23.3,21.84l-1482.85 0c-12.86,0 -23.29,-9.78 -23.29,-21.84l0 -190.66c0,-12.09 10.43,-21.86 23.29,-21.86l1482.85 0c12.87,0 23.3,9.78 23.3,21.86l0 190.66z"/>
   <line class="fil0 str2" x1="1339.21" y1="762" x2="1410.83" y2= "762" />
   <line class="fil0 str2" x1="2093.99" y1="762" x2="2165.6" y2= "762" />
   <g id="Znaky">
    <path class="fil3" d="M3556.78 1200.25l9.17 1.02c-0.59,5.49 -2.72,10.02 -6.38,13.56 -3.65,3.56 -8.45,5.33 -14.41,5.34 -5.01,-0.02 -9.09,-1.26 -12.2,-3.79 -3.13,-2.51 -5.53,-5.94 -7.22,-10.25 -1.69,-4.31 -2.52,-9.07 -2.52,-14.27 0,-8.36 1.98,-15.16 5.94,-20.41 3.97,-5.24 9.43,-7.87 16.36,-7.87 5.45,0 9.97,1.68 13.6,5.04 3.61,3.35 5.89,8.14 6.83,14.38l-9.17 0.98c-1.69,-8.29 -5.42,-12.42 -11.18,-12.42 -3.69,0 -6.57,1.72 -8.62,5.16 -2.04,3.44 -3.07,8.44 -3.07,14.97 0,6.66 1.1,11.67 3.29,15.06 2.19,3.39 5.1,5.09 8.72,5.09 2.9,0 5.35,-1.14 7.4,-3.42 2.03,-2.28 3.18,-4.99 3.46,-8.16z"/>
    <polygon id="1" class="fil3" points="3592.97,1219.31 3582.36,1219.31 3582.36,1172.91 3567.76,1172.91 3567.76,1164.43 3607.55,1164.43 3607.55,1172.91 3592.97,1172.91 "/>
    <path id="2" class="fil3" d="M3656.37 1219.31l-10.46 0 -8.52 -22.56 -13.92 0 0 22.56 -9.88 0 0 -54.88 23.8 0c6.61,0 11.48,1.5 14.59,4.49 3.11,2.98 4.66,6.85 4.66,11.6 0,7.04 -3.29,11.9 -9.9,14.54l9.62 24.25zm-32.9 -30.48l12.31 0c3.55,0 6.22,-0.74 7.96,-2.25 1.74,-1.49 2.61,-3.57 2.61,-6.19 0,-2.42 -0.85,-4.36 -2.57,-5.85 -1.71,-1.49 -4.12,-2.24 -7.2,-2.24l-13.1 0 0 16.52z"/>
    <polygon id="3" class="fil3" points="3700.25,1219.31 3666.49,1219.31 3666.49,1164.43 3676.89,1164.43 3676.89,1210.34 3700.25,1210.34 "/>
    <path class="fil3" d="M175.39 1200.25l9.17 1.02c-0.59,5.49 -2.72,10.02 -6.38,13.56 -3.65,3.56 -8.45,5.33 -14.41,5.34 -5.01,-0.02 -9.09,-1.26 -12.2,-3.79 -3.13,-2.51 -5.53,-5.94 -7.22,-10.25 -1.69,-4.31 -2.52,-9.07 -2.52,-14.27 0,-8.36 1.98,-15.16 5.94,-20.41 3.97,-5.24 9.43,-7.87 16.36,-7.87 5.45,0 9.97,1.68 13.6,5.04 3.61,3.35 5.89,8.14 6.83,14.38l-9.17 0.98c-1.69,-8.29 -5.42,-12.42 -11.18,-12.42 -3.69,0 -6.57,1.72 -8.62,5.16 -2.04,3.44 -3.07,8.44 -3.07,14.97 0,6.66 1.1,11.67 3.29,15.06 2.19,3.39 5.1,5.09 8.72,5.09 2.9,0 5.35,-1.14 7.4,-3.42 2.03,-2.28 3.18,-4.99 3.46,-8.16z"/>
    <polygon id="1" class="fil3" points="211.58,1219.31 200.97,1219.31 200.97,1172.91 186.37,1172.91 186.37,1164.43 226.16,1164.43 226.16,1172.91 211.58,1172.91 "/>
    <path id="2" class="fil3" d="M274.98 1219.31l-10.46 0 -8.52 -22.56 -13.92 0 0 22.56 -9.88 0 0 -54.88 23.8 0c6.61,0 11.48,1.5 14.59,4.49 3.11,2.98 4.66,6.85 4.66,11.6 0,7.04 -3.29,11.9 -9.9,14.54l9.62 24.25zm-32.9 -30.48l12.31 0c3.55,0 6.22,-0.74 7.96,-2.25 1.74,-1.49 2.61,-3.57 2.61,-6.19 0,-2.42 -0.85,-4.36 -2.57,-5.85 -1.71,-1.49 -4.12,-2.24 -7.2,-2.24l-13.1 0 0 16.52z"/>
    <polygon id="3" class="fil3" points="318.86,1219.31 285.1,1219.31 285.1,1164.43 295.5,1164.43 295.5,1210.34 318.86,1210.34 "/>
    <path class="fil3" d="M1694.31 1206.08l9.61 -2.04c1.15,5.43 5.57,8.15 13.27,8.15 3.5,0 6.2,-0.68 8.09,-2.08 1.89,-1.38 2.83,-3.12 2.83,-5.19 0,-1.49 -0.42,-2.88 -1.28,-4.16 -0.86,-1.28 -2.7,-2.28 -5.52,-2.99l-10.48 -2.74c-3.6,-0.93 -6.25,-2 -7.96,-3.19 -1.72,-1.19 -3.1,-2.88 -4.13,-5.05 -1.03,-2.17 -1.55,-4.49 -1.55,-6.96 0,-4.9 1.82,-8.84 5.48,-11.8 3.65,-2.96 8.3,-4.45 13.98,-4.45 4.72,0 8.93,1.05 12.65,3.1 3.71,2.06 6.08,4.98 7.1,8.77l-9.41 2.33c-1.44,-4.16 -4.82,-6.23 -10.13,-6.23 -3.08,0 -5.43,0.63 -7.05,1.92 -1.62,1.29 -2.43,2.92 -2.43,4.91 0,3.13 2.54,5.33 7.63,6.59l9.33 2.33c5.65,1.41 9.44,3.51 11.38,6.29 1.93,2.79 2.89,5.85 2.89,9.19 0,5.38 -2.03,9.64 -6.09,12.72 -4.06,3.1 -9.32,4.64 -15.78,4.65 -5.43,-0.02 -10.2,-1.16 -14.29,-3.43 -4.09,-2.28 -6.81,-5.82 -8.14,-10.65z"/>
    <path id="1" class="fil3" d="M1756.98 1219.31l-9.88 0 0 -54.88 22.46 0c6.41,0 11.16,1.62 14.26,4.85 3.08,3.22 4.64,7.04 4.64,11.43 0,5.02 -1.67,9.09 -5.02,12.19 -3.35,3.12 -7.6,4.66 -12.75,4.66l-13.71 0 0 21.75zm0 -30.23l11.71 0c3.05,0 5.38,-0.75 6.98,-2.25 1.62,-1.51 2.42,-3.5 2.42,-6 0,-2.25 -0.74,-4.17 -2.22,-5.79 -1.5,-1.61 -4.19,-2.4 -8.07,-2.4l-10.81 0 0 16.44z"/>
    <path id="2" class="fil3" d="M1835.86 1219.31l-10.56 0 -4.39 -13.06 -21.11 0 -4.29 13.06 -8.44 0 18.21 -54.88 12.17 0 18.41 54.88zm-17.61 -20.98l-8 -24.49 -8 24.49 16 0z"/>
    <path id="3" class="fil3" d="M1871.32 1200.25l9.17 1.02c-0.59,5.49 -2.72,10.02 -6.38,13.56 -3.65,3.56 -8.45,5.33 -14.41,5.34 -5.01,-0.02 -9.09,-1.26 -12.2,-3.79 -3.13,-2.51 -5.53,-5.94 -7.22,-10.25 -1.69,-4.31 -2.52,-9.07 -2.52,-14.27 0,-8.36 1.98,-15.16 5.94,-20.41 3.97,-5.24 9.43,-7.87 16.36,-7.87 5.45,0 9.97,1.68 13.6,5.04 3.61,3.35 5.89,8.14 6.83,14.38l-9.17 0.98c-1.69,-8.29 -5.42,-12.42 -11.18,-12.42 -3.69,0 -6.57,1.72 -8.62,5.16 -2.04,3.44 -3.07,8.44 -3.07,14.97 0,6.66 1.1,11.67 3.29,15.06 2.19,3.39 5.1,5.09 8.72,5.09 2.9,0 5.35,-1.14 7.4,-3.42 2.03,-2.28 3.18,-4.99 3.46,-8.16z"/>
    <polygon id="4" class="fil3" points="1923.99,1219.31 1888.34,1219.31 1888.34,1164.43 1923.63,1164.43 1923.63,1172.59 1898.22,1172.59 1898.22,1187.47 1918.64,1187.47 1918.64,1195.43 1898.22,1195.43 1898.22,1210.78 1923.99,1210.78 "/>
    <path class="fil3" d="M844.62 696.38l9.61 -2.04c1.15,5.43 5.57,8.15 13.27,8.15 3.5,0 6.2,-0.68 8.09,-2.08 1.89,-1.38 2.83,-3.12 2.83,-5.19 0,-1.49 -0.42,-2.88 -1.28,-4.16 -0.86,-1.28 -2.7,-2.28 -5.52,-2.99l-10.48 -2.74c-3.6,-0.93 -6.25,-2 -7.96,-3.19 -1.72,-1.19 -3.1,-2.88 -4.13,-5.05 -1.03,-2.17 -1.55,-4.49 -1.55,-6.96 0,-4.9 1.82,-8.84 5.48,-11.8 3.65,-2.96 8.3,-4.45 13.98,-4.45 4.72,0 8.93,1.05 12.65,3.1 3.71,2.06 6.08,4.98 7.1,8.77l-9.41 2.33c-1.44,-4.16 -4.82,-6.23 -10.13,-6.23 -3.08,0 -5.43,0.63 -7.05,1.92 -1.62,1.29 -2.43,2.92 -2.43,4.91 0,3.13 2.54,5.33 7.63,6.59l9.33 2.33c5.65,1.41 9.44,3.51 11.38,6.29 1.93,2.79 2.89,5.85 2.89,9.19 0,5.38 -2.03,9.64 -6.09,12.72 -4.06,3.1 -9.32,4.64 -15.78,4.65 -5.43,-0.02 -10.2,-1.16 -14.29,-3.43 -4.09,-2.28 -6.81,-5.82 -8.14,-10.65z"/>
    <polygon class="fil3" points="1566.81,453.24 1556.2,453.24 1556.2,406.84 1541.6,406.84 1541.6,398.36 1581.39,398.36 1581.39,406.84 1566.81,406.84 "/>
    <polygon class="fil3" points="2651.54,709.61 2617.78,709.61 2617.78,654.73 2628.18,654.73 2628.18,700.65 2651.54,700.65 "/>
    <polygon class="fil3" points="3535.02,457.62 3499.37,457.62 3499.37,402.74 3534.66,402.74 3534.66,410.91 3509.25,410.91 3509.25,425.78 3529.67,425.78 3529.67,433.74 3509.25,433.74 3509.25,449.1 3535.02,449.1 "/>
    <path id="1" class="fil3" d="M3585 457.62l-9.6 0 -20.83 -35.06c-0.32,-0.53 -0.84,-1.4 -1.57,-2.61 -0.33,-0.53 -0.82,-1.38 -1.48,-2.54l0 40.21 -7.96 0 0 -54.88 10.92 0 19.23 32.32c0.15,0.28 1.32,2.24 3.5,5.92l0 -38.23 7.8 0 0 54.88z"/>
    <polygon id="2" class="fil3" points="3616.23,457.62 3605.62,457.62 3605.62,411.22 3591.02,411.22 3591.02,402.74 3630.82,402.74 3630.82,411.22 3616.23,411.22 "/>
    <polygon id="3" class="fil3" points="3672.51,457.62 3636.86,457.62 3636.86,402.74 3672.15,402.74 3672.15,410.91 3646.74,410.91 3646.74,425.78 3667.16,425.78 3667.16,433.74 3646.74,433.74 3646.74,449.1 3672.51,449.1 "/>
    <path id="4" class="fil3" d="M3723.82 457.62l-10.46 0 -8.52 -22.56 -13.92 0 0 22.56 -9.88 0 0 -54.88 23.8 0c6.61,0 11.48,1.5 14.59,4.49 3.11,2.98 4.66,6.85 4.66,11.6 0,7.04 -3.29,11.9 -9.9,14.54l9.62 24.25zm-32.9 -30.48l12.31 0c3.55,0 6.22,-0.74 7.96,-2.25 1.74,-1.49 2.61,-3.57 2.61,-6.19 0,-2.42 -0.85,-4.36 -2.57,-5.85 -1.71,-1.49 -4.12,-2.24 -7.2,-2.24l-13.1 0 0 16.52z"/>
    <path class="fil3" d="M4539.1 1199.86l43.98 0 0 8 43.98 -16 -43.98 -15.99 0 7.99 -43.98 0 0 16zm21.99 0m21.99 4m21.99 -4m0 -16m-21.99 -3.99m-21.99 3.99m-21.99 8"/>
    <path class="fil3" d="M4123.3 1183.87l-43.98 0 0 -8 -43.98 16 43.98 15.99 0 -7.99 43.98 0 0 -16zm-21.99 0m-21.99 -4m-21.99 4m0 16m21.99 3.99m21.99 -3.99m21.99 -8"/>
    <path class="fil3" d="M4323.35 1147.89l0 43.98 -8 0 16 43.98 15.99 -43.98 -7.99 0 0 -43.98 -16 0zm0 21.99m-4 21.99m4 21.99m16 0m3.99 -21.99m-3.99 -21.99m-8 -21.99"/>
    <path class="fil3" d="M4339.35 982.09l0 -43.98 8 0 -16 -43.98 -15.99 43.98 7.99 0 0 43.98 16 0zm0 -21.99m4 -21.99m-4 -21.99m-16 0m-3.99 21.99m3.99 21.99m8 21.99"/>
   </g>
  </g>
 </g>
</svg>
